<?xml version="1.0" encoding="UTF-8" standalone="no"?>
<!-- Created with Inkscape (http://www.inkscape.org/) -->

<svg
   width="1080"
   height="1080"
   viewBox="0 0 1080 1080"
   version="1.1"
   id="svg1"
   xml:space="preserve"
   sodipodi:docname="luma-logo-icon.svg"
   xmlns:inkscape="http://www.inkscape.org/namespaces/inkscape"
   xmlns:sodipodi="http://sodipodi.sourceforge.net/DTD/sodipodi-0.dtd"
   xmlns:xlink="http://www.w3.org/1999/xlink"
   xmlns="http://www.w3.org/2000/svg"
   xmlns:svg="http://www.w3.org/2000/svg"><sodipodi:namedview
     id="namedview1"
     pagecolor="#ffffff"
     bordercolor="#000000"
     borderopacity="0.25"
     inkscape:showpageshadow="2"
     inkscape:pageopacity="0.0"
     inkscape:pagecheckerboard="0"
     inkscape:deskcolor="#d1d1d1"><inkscape:page
       x="0"
       y="0"
       width="1080"
       height="1080"
       id="page2"
       margin="0"
       bleed="0" /></sodipodi:namedview><defs
     id="defs1"><linearGradient
       id="linearGradient5"><stop
         style="stop-color:#613dc1;stop-opacity:1;"
         offset="0.42442426"
         id="stop5" /><stop
         style="stop-color:#c32ed0;stop-opacity:1;"
         offset="0.9139986"
         id="stop6" /></linearGradient><linearGradient
       id="linearGradient3"><stop
         style="stop-color:#613dc1;stop-opacity:1;"
         offset="0.37676978"
         id="stop3" /><stop
         style="stop-color:#c32ed0;stop-opacity:1;"
         offset="0.74537718"
         id="stop4" /></linearGradient><linearGradient
       id="linearGradient1"><stop
         style="stop-color:#613dc1;stop-opacity:1;"
         offset="0.63328886"
         id="stop1" /><stop
         style="stop-color:#c32ed0;stop-opacity:1;"
         offset="1"
         id="stop2" /></linearGradient><clipPath
       clipPathUnits="userSpaceOnUse"
       id="clipPath1"><path
         d="M 98.181641,314.18164 V 754.03711 H 997.52734 V 314.18164 Z"
         id="path1" /></clipPath><image
       width="2481.3455"
       height="1395.0757"
       preserveAspectRatio="none"
       xlink:href="../../Pictures/Screenshot_2025-02-10_11_40_38.png"
       id="image1"
       x="-729.96362"
       y="-437.41818" /><linearGradient
       xlink:href="#linearGradient1"
       id="linearGradient2"
       x1="239.43764"
       y1="466.099"
       x2="384.49927"
       y2="587.82013"
       gradientUnits="userSpaceOnUse" /><linearGradient
       xlink:href="#linearGradient3"
       id="linearGradient4"
       x1="496.63846"
       y1="422.19135"
       x2="538.74524"
       y2="579.33606"
       gradientUnits="userSpaceOnUse" /><linearGradient
       xlink:href="#linearGradient5"
       id="linearGradient6"
       x1="653.06561"
       y1="269.19708"
       x2="899.74005"
       y2="649.04236"
       gradientUnits="userSpaceOnUse" /><linearGradient
       inkscape:collect="always"
       xlink:href="#linearGradient1"
       id="linearGradient7"
       gradientUnits="userSpaceOnUse"
       x1="239.43764"
       y1="466.099"
       x2="384.49927"
       y2="587.82013"
       gradientTransform="matrix(5.0070556,0,0,5.0070556,-1022.0436,-2098.5157)" /></defs><path
     style="fill:url(#linearGradient7);fill-opacity:1;fill-rule:nonzero;stroke-width:11.1607;stroke-dasharray:none"
     d="M 752.74185,574.53802 C 649.85422,464.40967 545.99491,473.81052 429.47492,479.47105 312.95494,485.13152 237.84695,547.02079 157.24036,603.32163 121.35799,628.38419 55.088707,529.97577 67.431257,444.47749 79.773844,358.97922 180.70433,320.88452 180.70433,320.88452 c 0,0 -46.61645,-121.17108 50.78972,-188.09764 97.40615,-66.926556 202.96925,3.42718 202.96925,3.42718 0,0 -27.99164,11.51763 -40.84481,33.89246 -12.8531,22.37483 -18.24976,49.96966 -18.24976,49.96966 0,0 120.37111,-148.743048 266.79449,-86.90381 146.4233,61.8393 139.91504,173.80752 139.91504,173.80752 0,0 218.30944,49.70239 231.16404,231.16398 12.8545,181.46166 -126.26082,170.24811 -144.26034,168.59328 -17.99943,-1.65483 -28.92941,-12.01584 -58.2255,-12.60106 -12.43685,-0.24834 -15.93783,7.68138 -18.24983,17.81526 0,0 -5.79582,29.84775 -3.29018,62.15461 2.50574,32.30682 20.3013,72.22839 8.06986,88.85994 -12.23121,16.6314 -73.57723,72.91105 -208.13439,99.2682 -149.83748,29.35032 -283.83336,2.96709 -283.83336,2.96709 0,0 134.78169,0.63562 257.76222,-23.82393 122.98055,-24.45966 182.49793,-93.8561 182.49793,-93.8561 4.99529,-5.91146 -9.74364,-16.25032 -19.11885,-10.42848 -14.60097,9.06695 -74.11699,62.61678 -182.1997,85.94742 -108.0827,23.33063 -193.22452,8.77773 -193.22452,8.77773 0,0 103.57486,-3.20685 205.09285,-34.76144 101.518,-31.55475 140.78414,-75.17182 125.14145,-75.17182 -15.6427,0 -40.07503,-32.99043 -212.04516,6.51782 -171.97013,39.50821 -184.97856,71.18598 -199.6614,76.04073 -14.68279,4.85483 -33.19101,2.14631 -45.62444,-25.85384 -25.17367,-56.69154 -44.5768,-208.52165 -18.90158,-258.75589 25.67522,-50.23424 147.6905,-91.34491 288.52046,-99.07025 140.82996,-7.72533 158.71886,15.51602 259.18403,53.77488 z"
     id="path3-5" /><g
     id="layer1"
     style="display:none"><use
       x="0"
       y="0"
       xlink:href="#image1"
       clip-path="url(#clipPath1)"
       id="use1"
       style="display:inline" /></g><path
     id="path5"
     style="display:none;fill:#ffe156;fill-opacity:1;stroke-width:3.7931"
     d="M 916.01587,540 A 376.01587,174.38129 0 0 1 540,714.38129 376.01587,174.38129 0 0 1 163.98413,540 376.01587,174.38129 0 0 1 540,365.61871 376.01587,174.38129 0 0 1 916.01587,540 Z" /><g
     id="layer2"
     transform="matrix(1.7979627,0,0,1.7979627,-368.33284,-407.45362)"
     style="display:none"><path
       style="fill:url(#linearGradient2);fill-opacity:1;fill-rule:nonzero;stroke-width:2.229;stroke-dasharray:none"
       d="m 354.45689,533.85742 c -20.54853,-21.99463 -41.29112,-20.11711 -64.56228,-18.9866 -23.27116,1.1305 -38.27159,13.49091 -54.37019,24.73521 -7.16636,5.00545 -20.40154,-14.6485 -17.93651,-31.72406 2.46504,-17.07556 22.62269,-24.68376 22.62269,-24.68376 0,0 -9.31015,-24.20007 10.14363,-37.56652 19.45378,-13.36645 40.53665,0.68447 40.53665,0.68447 0,0 -5.59044,2.30028 -8.15745,6.76894 -2.567,4.46866 -3.64481,9.97985 -3.64481,9.97985 0,0 24.0403,-29.70669 53.28371,-17.35627 29.2434,12.35043 27.94357,34.71252 27.94357,34.71252 0,0 43.60037,9.92647 46.16765,46.16765 2.56727,36.24119 -25.21657,34.00164 -28.81139,33.67114 -3.59482,-0.3305 -5.77773,-2.39978 -11.62869,-2.51666 -2.48387,-0.0496 -3.18308,1.53411 -3.64482,3.55803 0,0 -1.15755,5.96114 -0.65711,12.4134 0.50044,6.45226 4.05452,14.42533 1.6117,17.74694 -2.44281,3.32161 -14.69472,14.56166 -41.56823,19.82568 -29.92527,5.8618 -56.68668,0.59258 -56.68668,0.59258 0,0 26.91835,0.12695 51.4798,-4.75808 24.56145,-4.88503 36.44815,-18.74475 36.44815,-18.74475 0.99765,-1.18063 -1.94598,-3.24549 -3.81838,-2.08276 -2.91608,1.81083 -14.80251,12.5057 -36.38859,17.16526 -21.58608,4.65955 -38.59045,1.75306 -38.59045,1.75306 0,0 20.68578,-0.64046 40.96077,-6.9425 20.27499,-6.30204 28.11715,-15.01316 24.99302,-15.01316 -3.12413,0 -8.00371,-6.58879 -42.34927,1.30172 -34.34556,7.89051 -36.94358,14.21713 -39.87601,15.18672 -2.93242,0.9696 -6.62885,0.42867 -9.11203,-5.16349 -5.02764,-11.32233 -8.9028,-41.64556 -3.77499,-51.67825 5.12781,-10.03269 29.49648,-18.24324 57.62278,-19.78613 28.1263,-1.54289 31.69904,3.09883 51.76376,10.73982 z"
       id="path3" /><path
       style="fill:#613dc1;fill-opacity:1;stroke-width:2.229;stroke-dasharray:none"
       d="m 439.70329,540.22397 c 0.12432,0.43111 0.17466,1.02177 0.0671,1.9244 -0.10993,0.92197 -0.64569,1.77409 -2.0942,1.65618 -1.44851,-0.11791 -2.76105,-1.90456 -1.56515,-4.95365 0.80039,-2.04067 3.1758,-2.82957 5.52311,-3.11169 2.34731,-0.28212 90.21137,7.56651 135.57467,9.754 10.80698,0.52113 34.02273,0.49999 35.04356,-4.44879 0.32863,-1.59315 -0.88117,-6.55269 2.30444,-6.65919 2.75001,-0.0919 4.12067,2.51362 2.59038,7.73344 -1.53029,5.21982 -7.50145,7.98366 -16.62063,8.24825 -9.11918,0.26459 -39.40995,0.76429 -89.01832,-4.33906 -49.60837,-5.10335 -72.65682,-8.75787 -71.80492,-5.80389 z"
       id="path4" /><g
       id="g3"><path
         d="m 447.65807,537.72103 q -4.05748,-1.01437 -6.99916,-4.15891 -2.94167,-3.04311 -4.05748,-6.69485 -0.10143,-1.31868 -0.20287,-3.55029 -0.10144,-2.23161 0,-4.05748 0.10144,-1.9273 0.30431,-2.23161 0.30431,-0.20288 0.30431,-1.21725 -0.10144,-0.40575 0.10144,-1.31868 0.30431,-1.01437 0.60862,-2.02874 0.50718,-1.21724 0.50718,-1.9273 0,-0.8115 -0.10143,-1.21725 0,0 0.30431,-0.60862 0.30431,-0.71006 0.71006,-1.1158 0.60862,-0.60863 0.50718,-1.21725 0,-0.60862 0,-0.60862 -0.10143,-0.40575 0.20288,-1.11581 0.30431,-0.71006 0.60862,-1.1158 0.20287,-0.20288 0.50718,-0.8115 0.40575,-0.71006 0.40575,-0.71006 0,-0.30431 0.40575,-1.62299 0.50718,-1.31868 1.11581,-2.84024 0.60862,-1.62299 1.1158,-2.94167 0.60863,-1.31868 0.91294,-1.72443 v -0.20287 q 0.40574,-1.01437 1.1158,-2.13018 0.10144,-0.50718 0.50719,-1.62299 0.40575,-1.21725 0.91293,-2.33305 1.11581,-2.43449 2.7388,-5.4776 1.72443,-3.14455 3.65173,-6.18766 1.92731,-3.14454 3.65173,-5.57903 1.82587,-2.53593 3.14455,-3.75317 1.72443,-1.9273 2.94167,-2.23161 1.31868,-0.40575 2.84024,1.1158 0.71006,0.71006 1.11581,1.82587 0.40574,1.1158 0.30431,2.02874 0,0.91293 -0.60862,1.01437 -0.71006,0.40575 -2.02874,2.33305 -1.31869,1.82586 -3.04311,4.36179 -1.623,2.53592 -3.24599,5.27472 -1.62299,2.63737 -2.84023,4.76754 -1.31868,2.94168 -2.43449,5.17329 -1.11581,2.13018 -1.11581,2.13018 -0.10144,0.30431 -0.20287,0.50718 -0.10144,0.20287 -0.20288,0.40575 -1.52155,3.14455 -2.53592,5.78191 -1.01437,2.53592 -2.02874,5.37616 -0.60862,0.71006 -0.71006,1.42012 -0.10144,0.71006 -0.10144,0.71006 -0.20287,-0.10144 -0.30431,0.50718 -0.10144,0.50719 -0.40575,1.21724 -0.50718,0.40575 -0.60862,1.31869 -0.10144,0.81149 -0.10144,1.62299 -0.71005,1.82586 -1.31868,4.46323 -0.60862,2.53592 -0.91293,4.97041 -0.20287,2.33305 -0.10144,3.65173 0.20288,1.72443 1.52156,3.04311 1.31868,1.31868 3.24598,2.13018 1.11581,0.40574 1.92731,0.71006 0.91293,0.30431 1.62299,0.30431 0.81149,0.10143 2.02874,0 1.31868,-0.20288 3.55029,-0.60863 h -0.10143 q 1.31868,-0.20287 2.73879,-0.50718 1.52156,-0.40575 2.84024,-0.71006 1.21724,-0.20287 2.33305,-0.40575 1.11581,-0.30431 1.72443,-0.50718 2.23161,-0.60862 3.34742,-0.91294 1.11581,-0.30431 1.62299,0.10144 0.50719,0.40575 0.8115,1.21725 0.40575,0.71005 0.10144,1.62299 -0.20288,0.50718 -1.82587,1.72443 -1.52156,1.1158 -3.65173,2.23161 -2.02874,1.11581 -3.95605,1.72443 -2.02874,0.91293 -5.07184,1.31868 -2.94168,0.50719 -5.78191,0.40575 -2.7388,0 -4.36179,-0.50719 z m 52.24002,-4.86897 q -1.01437,-1.01437 -1.92731,-2.7388 -0.81149,-1.82587 -1.42012,-4.15892 -0.20287,-0.81149 -0.20287,-2.02874 0.10144,-1.31868 0,-1.9273 -0.30431,0.71006 -1.01437,1.62299 -0.60862,0.8115 -1.21724,1.31868 -0.40575,0.40575 -1.82587,1.62299 -1.42012,1.11581 -2.84023,1.82587 -3.34743,2.13018 -5.68048,2.23161 -2.33305,0.10144 -4.26035,-2.33305 -1.62299,-1.31868 -2.43449,-3.04311 -0.71006,-1.82586 -0.10144,-4.6661 0.20288,-3.55029 1.01437,-6.89771 0.8115,-3.44886 3.34743,-9.12933 2.13017,-4.15892 3.24598,-6.18766 1.11581,-2.13018 1.42012,-2.53593 1.52155,-0.50718 2.94167,0.10144 1.42012,0.50719 1.62299,1.9273 0.60862,1.01437 -0.10143,3.5503 -0.71006,2.53592 -2.53593,6.08622 -1.42012,3.44886 -2.63736,6.89771 -1.21725,3.34743 -1.42012,5.68048 -0.20287,2.33305 1.21724,2.84023 0.91294,0.50719 2.94168,-0.20287 2.13017,-0.71006 4.86897,-3.85461 2.7388,-3.24598 5.4776,-9.83939 0.8115,-2.02874 1.21724,-3.55029 0.40575,-1.62299 0.50719,-3.5503 -0.20287,-1.21724 0.30431,-2.23161 0.60862,-1.11581 1.82587,-1.82587 0.40574,-0.50718 1.1158,-0.91293 0.71006,-0.50718 0.91294,0 l 1.62299,-0.10144 q 0.40575,-0.10143 0.60862,0.60863 0.30431,0.60862 0.8115,1.01437 1.1158,0.91293 0.71006,3.95604 -0.30432,3.04311 -2.63737,8.52071 -1.9273,4.15891 -2.63736,6.28909 -0.60862,2.13018 -0.71006,4.15892 0,1.82586 0.50719,3.34742 0.60862,1.52155 2.13017,2.84023 1.11581,0.71006 1.21725,1.92731 0.20287,1.1158 0.10144,2.33305 -0.20288,0.91293 -1.31869,1.31868 -1.1158,0.50718 -2.43448,0.40575 -1.31868,0 -2.33305,-0.71006 z m 59.64503,-3.44886 q -0.60862,-0.20287 -1.82587,-1.11581 -1.1158,-0.91293 -2.02874,-2.94167 -0.81149,-2.13018 -0.81149,-5.68047 0.10143,-3.04311 0.20287,-4.56467 0.20288,-1.62299 -0.50718,-1.62299 -0.71006,0 -2.7388,1.42012 -2.02874,1.31868 -4.86898,3.85461 -2.7388,2.43448 -5.88334,5.88334 -1.11581,1.01437 -2.23162,2.23161 -1.1158,1.11581 -2.23161,1.52156 -1.11581,0.40575 -2.33305,-0.60862 l -1.01437,-0.91294 q -0.60862,-0.50718 -0.91294,-1.21724 -0.20287,-0.71006 0,-1.42012 l 2.53593,-7.10059 q 1.52155,-3.34742 2.02874,-4.86897 0.60862,-1.52156 0.50718,-1.92731 0,-0.40574 -0.30431,-0.30431 -0.81149,0.10144 -2.23161,1.01437 -1.42012,0.91294 -1.9273,1.623 -0.40575,0 -1.21725,0.91293 -0.71006,0.91293 -1.72443,1.62299 -0.71006,1.01437 -2.63736,2.84024 -1.82586,1.82586 -3.75317,3.8546 -1.31868,1.11581 -2.7388,2.94167 -1.42011,1.72443 -2.43448,3.04311 -1.01437,1.31869 -1.31868,1.31869 -1.52156,0 -2.7388,-0.8115 -1.11581,-0.91293 -1.623,-2.53593 -0.81149,-1.52155 -0.10143,-4.56466 0.71006,-3.04311 1.9273,-8.52071 0.40575,-1.52155 0.50719,-2.33305 0.20287,-0.91293 0.50718,-1.72443 0.30431,-0.91293 0.91293,-2.43449 0.71006,-1.62299 1.92731,-4.46322 0.60862,-1.72443 0.71006,-2.7388 0.10143,-1.11581 0,-1.72443 0,-1.11581 0.71005,-1.9273 0.71006,-0.8115 1.623,-1.11581 1.01437,-0.30431 1.72443,-0.10144 1.62299,0.20288 2.53592,1.42012 0.91293,1.21724 1.01437,2.84024 0.10144,1.31868 -0.30431,2.33305 -0.30431,1.01437 -0.60862,1.82586 l -1.11581,2.7388 q -0.71006,1.52156 -1.42012,3.34742 -0.60862,1.72443 -1.1158,3.04311 -0.40575,1.31868 -0.40575,1.62299 0.10143,0.30432 0.81149,-0.20287 0.71006,-0.50718 1.72443,-1.42012 1.01437,-0.91293 2.02874,-1.72443 2.02874,-1.9273 4.46323,-3.65173 2.53592,-1.82586 4.76754,-3.04311 2.33305,-1.31868 3.65173,-1.72443 1.72443,0.10144 2.63736,1.01437 1.01437,0.8115 2.23162,2.23162 0.60862,1.01437 0.50718,2.23161 0,1.11581 -0.20287,2.13018 -0.10144,0.40575 -0.60862,1.82586 -0.40575,1.42012 -0.8115,2.7388 -0.40575,1.21725 -0.40575,1.21725 0,0 1.01437,-0.91294 1.01437,-0.91293 2.23162,-1.9273 1.31868,-1.11581 2.13017,-1.72443 4.36179,-3.34742 7.30347,-4.15892 2.94167,-0.91293 4.86897,1.92731 1.21725,1.1158 1.31868,2.63736 0.20288,1.52155 0.20288,4.76754 0.10143,1.31868 0.20287,3.14455 0.10144,1.72442 0.30431,3.14454 0.20288,1.31868 0.40575,1.62299 0.30431,0.40575 1.11581,0.71006 0.91293,0.30431 2.02874,0.50719 1.52155,0.40575 1.72443,1.82586 0.30431,1.31868 -1.31869,2.33305 -1.52155,0.91294 -3.34742,0.91294 -1.72443,0 -3.24598,-0.40575 z m 20.79456,4.46323 q -4.86897,0 -7.81064,-3.34742 -2.84024,-3.34742 -2.7388,-8.92646 0.10143,-3.65173 1.42011,-7.91208 1.31869,-4.26036 3.44886,-8.2164 2.23162,-4.05748 4.76754,-6.99915 2.63736,-3.04311 5.37616,-4.26036 1.01437,-0.50718 2.13018,-0.81149 1.21724,-0.30431 2.43449,-0.30431 1.1158,0 2.43448,0.30431 1.31869,0.30431 2.23162,0.71005 1.9273,0.71006 3.14455,2.13018 1.21724,1.31868 1.72442,4.05748 0.20288,1.62299 0.10144,2.53593 -0.10144,0.91293 -0.60862,2.33305 -1.21724,3.55029 -3.44886,6.39053 -2.13018,2.7388 -5.27472,4.36179 -0.8115,0.50718 -1.82587,0.71006 -0.91293,0.20287 -1.9273,0.20287 -2.02874,0 -3.85461,-0.71006 -1.82586,-0.71006 -3.04311,-2.02874 l -0.71006,-0.81149 -0.40574,0.91293 q -0.91294,2.43449 -1.42012,4.46323 -0.40575,1.9273 -0.40575,3.44886 0,1.21724 0.20287,2.43448 0.20288,1.11581 0.71006,1.92731 0.40575,0.60862 1.21725,0.91293 0.91293,0.20287 2.02874,0.20287 0.60862,0 1.31868,0 0.71006,-0.10143 1.31868,-0.30431 1.72443,-0.60862 2.84023,-1.31868 1.11581,-0.81149 2.33306,-1.62299 l 0.40574,-0.20287 -0.10143,-0.10144 q 1.31868,-0.71006 2.13017,-1.21725 0.91294,-0.50718 1.01437,-0.50718 0.40575,-0.20287 0.8115,-0.50718 1.01437,-0.30432 2.33305,0.50718 1.31868,0.71006 1.31868,1.9273 -0.10144,0.60862 -0.91293,1.72443 -0.8115,1.11581 -1.9273,2.23162 -1.01437,1.01437 -1.82587,1.31868 -0.20287,0.10143 -0.71006,0.30431 -0.50718,0.20287 -0.71006,0.40575 h 0.10144 q -0.91293,1.21724 -1.82587,1.21724 h -0.81149 q -0.40575,0.71006 -2.63737,1.62299 -2.23161,0.8115 -4.36179,0.8115 z m 4.76754,-23.0262 q 1.52156,0 2.63736,-0.8115 1.21725,-0.81149 2.13018,-1.82586 2.13018,-2.43449 2.63736,-5.07185 0.50719,-2.63736 -0.60862,-3.75317 -0.50718,-0.30431 -0.91293,-0.40575 -0.40575,-0.10144 -1.42012,0.20287 -0.91293,0.10144 -2.53592,1.21725 -1.52156,1.11581 -3.04311,2.63736 -1.42012,1.52156 -2.33306,2.94167 l -1.31868,2.13018 q 0.60863,-0.30431 1.11581,-0.30431 0.60862,-0.10144 0.71006,0.10144 0.30431,0.60862 0.60862,1.31868 0.40575,0.71006 0.91293,1.21724 0.50719,0.40575 1.42012,0.40575 z"
         id="text1"
         style="font-weight:500;font-size:101.437px;font-family:Caveat;-inkscape-font-specification:'Caveat, Medium';fill:url(#linearGradient4);fill-opacity:1;stroke-width:2.66907"
         aria-label="Lume&#10;"
         transform="scale(1.0184009,0.98193158)" /><path
         d="m 554.36496,457.29132 q -1.64563,5.21116 -1.64563,6.30824 0,0.3657 0.21333,0.60949 0.24379,0.21333 0.60949,0.21333 3.50458,0 7.74055,-1.12756 1.37135,-0.3657 1.58468,-0.3657 0.45711,0 0.45711,0.63997 0,1.09708 -3.38268,2.25512 -3.3522,1.15803 -6.49109,1.15803 -1.40183,0 -2.46844,-0.82281 -1.03614,-0.82282 -1.03614,-2.07227 0,-1.24946 0.88377,-4.26645 0.91424,-3.01698 1.82847,-6.43014 0.91424,-3.41315 0.91424,-5.7597 0,-0.33522 0.1219,-0.70091 0.51807,-1.12756 6.64346,-1.12756 6.1254,0 6.1254,0.88376 0,0.60949 -1.31041,0.82281 -1.09709,0.21333 -2.92556,0.39617 -1.798,0.15238 -2.52939,0.2438 -0.73139,0.0609 -3.53506,0.54854 v 0.0914 q 0,2.07227 -1.12756,6.24729 0.18285,0.0305 1.21899,0.0305 1.06661,0 2.83413,-0.15237 1.76753,-0.15237 2.6513,-0.15237 0.91423,0 0.91423,0.42664 0,1.06661 -2.49891,1.58468 -2.49892,0.51807 -5.79018,0.51807 z m 18.43711,-11.3975 q 0,5.72922 -2.37702,14.8716 -1.52373,6.21682 -2.13322,6.21682 -0.42665,0 -1.00566,-0.67044 -0.54855,-0.67044 -0.54855,-1.03614 0,-0.36569 0.88377,-3.77885 0.88376,-3.41315 1.76752,-8.38051 0.88377,-4.99783 0.88377,-8.99001 0,-0.42664 0.12189,-0.60949 0.1219,-0.18285 0.51807,-0.18285 0.39617,0 1.12756,0.88377 0.76187,0.85329 0.76187,1.6761 z m 22.39883,5.97302 q 1.03613,0 1.95037,1.15804 0.91424,1.12756 0.91424,1.98084 0,0.51807 -0.4876,0.51807 -0.33522,0 -1.03613,-0.51807 -0.70092,-0.54854 -1.43231,-0.54854 -0.73139,0 -2.31607,0.85329 -1.5542,0.85329 -1.5542,1.798 0,0.70092 2.80366,2.4075 1.06661,0.67044 1.9199,1.73705 0.88376,1.03613 0.88376,2.25512 0,1.18851 -1.6761,2.34654 -1.64563,1.12756 -3.87027,1.12756 -2.19417,0 -3.90075,-1.06661 -1.67611,-1.06661 -1.67611,-2.01132 0,-0.39617 0.18285,-0.60949 0.21332,-0.2438 0.51807,-0.2438 0.30475,0 0.85329,0.39617 1.64563,1.18851 3.41315,1.18851 1.79801,0 2.59035,-0.39617 0.79234,-0.42665 0.79234,-1.09709 0,-0.70091 -0.88377,-1.46278 -0.88376,-0.79234 -1.95037,-1.40183 -1.03614,-0.60949 -1.9199,-1.49325 -0.88377,-0.88377 -0.88377,-1.79801 0,-1.61515 2.5294,-3.3522 2.55986,-1.76753 4.23597,-1.76753 z m 12.3727,0 q 1.37136,0 2.52939,1.40183 1.15804,1.37136 1.15804,2.49892 0,1.09709 -0.76187,2.25512 0.3657,0.45712 0.3657,0.79234 0,0.85329 -0.39617,2.92556 -0.3657,2.07227 -0.45712,2.71224 -0.061,0.63997 -0.1219,1.03614 -0.061,0.36569 -0.15237,0.73139 -0.1219,0.76186 -0.54855,0.76186 -0.54854,0 -0.91423,-0.94471 -0.33522,-0.97519 -0.39617,-2.49892 -2.71224,3.44363 -5.02831,3.44363 -1.40183,0 -2.77319,-1.18851 -1.34088,-1.21898 -1.34088,-2.49891 0,-1.82848 1.34088,-4.51024 1.34088,-2.71224 3.4741,-4.81499 2.13323,-2.10275 4.02265,-2.10275 z m 1.40183,5.36353 q 0,-2.83414 -1.12756,-2.83414 -1.18851,0 -2.77319,1.70658 -1.58468,1.6761 -2.68176,3.80933 -1.09709,2.13322 -1.09709,3.38268 0,0.51806 0.42665,0.85328 0.42664,0.30475 1.00566,0.30475 1.43231,0 3.23031,-1.9199 1.798,-1.95037 2.49891,-4.72356 0.0914,-0.45712 0.51807,-0.54854 z m 6.09492,9.75187 q -0.42664,0 -1.00566,-0.63996 -0.57902,-0.67045 -0.57902,-1.24946 0,-0.57902 0.94472,-3.9617 0.97518,-3.38268 1.91989,-8.13672 0.97519,-4.78451 0.97519,-8.74621 0,-0.91424 0.67044,-0.91424 0.4876,0 1.18851,0.91424 0.70092,0.88376 0.70092,1.73705 0,3.74838 -1.64563,10.69659 3.62648,-4.90641 6.58251,-4.90641 1.43231,0 2.4075,1.40183 1.00566,1.40183 1.00566,3.3522 0,1.9199 -1.12756,4.41882 -1.09709,2.49892 -2.98651,4.29692 -1.88943,1.76753 -3.9617,1.76753 -2.07227,0 -4.0836,-2.10275 l -0.0305,0.0305 q -0.67044,2.0418 -0.97519,2.0418 z m 4.84546,-2.34654 q 1.98085,0 3.87028,-2.68177 1.9199,-2.71224 1.9199,-5.69875 0,-1.798 -1.09709,-1.798 -1.76753,0 -3.9617,2.46844 -2.16369,2.46845 -3.74837,5.8816 1.4323,1.82848 3.01698,1.82848 z m 19.04662,-7.58818 q 0,-1.03613 -0.33522,-1.95037 -0.33522,-0.94471 -0.97519,-1.37136 -2.10275,0.57902 -3.62648,3.26078 -1.49325,2.65129 -1.49325,4.99784 0,2.34654 1.15803,2.92556 2.19417,-0.42664 3.7179,-2.98651 1.55421,-2.59034 1.55421,-4.87594 z m -8.01482,0.27427 q 1.06661,-2.37701 2.77319,-3.90074 1.73705,-1.55421 3.53505,-1.55421 1.82847,0 3.04746,1.55421 1.21898,1.52373 1.21898,3.74837 0,2.19417 -1.06661,4.51024 -1.06661,2.2856 -2.95603,3.80933 -1.85896,1.49325 -3.9617,1.49325 -1.55421,0 -2.59034,-1.4323 -1.03614,-1.43231 -1.03614,-3.62648 0,-2.22465 1.03614,-4.60167 z m 14.44493,-1.73705 -0.0914,-2.28559 q 0,-1.43231 0.67044,-1.43231 0.57902,0 1.09709,0.76187 0.54854,0.73139 0.54854,1.76752 0,1.00566 -0.0609,1.52373 2.65129,-4.02264 5.02831,-4.02264 1.49326,0 1.49326,0.73139 0,0.36569 -0.33522,0.67044 -0.33523,0.30474 -1.06662,0.70091 -1.61515,0.70092 -2.74271,2.1637 -1.09709,1.43231 -1.798,3.26078 -0.70092,1.82848 -1.12756,3.07794 -0.39617,1.24945 -0.60949,1.95037 -0.21333,0.70092 -0.4876,1.37136 -0.48759,1.21898 -1.12756,1.21898 -0.51806,0 -0.85329,-0.57902 -0.30474,-0.60949 -0.30474,-1.15803 0,-0.57902 0.51807,-2.25512 1.24946,-3.8398 1.24946,-7.46628 z m 31.60211,14.23164 q 0.30475,0 0.57902,0.2438 0.27427,0.27427 0.27427,0.57901 0,0.4876 -1.21898,1.18851 -1.18851,0.73139 -2.25512,1.49326 -1.06661,0.76186 -1.67611,1.15803 -0.60949,0.42665 -0.97518,0.42665 -0.3657,0 -0.76187,-0.67044 -0.39617,-0.63997 -0.39617,-1.00566 0,-0.3657 0.0305,-0.6095 0.0609,-0.21332 0.18285,-0.60949 0.12189,-0.39617 0.27427,-0.82281 0.15237,-0.39617 0.39617,-1.12756 0.27427,-0.73139 0.51806,-1.40183 0.2438,-0.63997 0.63997,-1.76753 0.42665,-1.12756 0.79234,-2.10275 -1.03614,1.00566 -2.25512,1.61516 -1.21898,0.57901 -2.28559,0.57901 -1.06662,0 -2.25512,-1.27993 -1.18851,-1.27993 -1.18851,-2.59034 0,-1.34088 0.82281,-3.26078 0.85329,-1.95038 2.10275,-3.7179 1.24946,-1.76753 2.92556,-3.01699 1.70658,-1.24946 3.07793,-1.24946 1.40183,0 2.5294,1.12756 1.12756,1.12756 1.12756,1.9199 0,0.76187 -0.51807,0.76187 -0.3657,0 -1.18851,-0.67045 -0.79234,-0.70091 -1.40183,-0.70091 -1.34089,0 -3.07794,1.73705 -1.70658,1.70658 -2.86461,3.8398 -1.15804,2.13322 -1.15804,3.41316 0,0.48759 0.33523,0.82281 0.33522,0.33522 0.82281,0.33522 1.6761,0 3.80932,-1.88942 2.13323,-1.88943 2.89509,-4.84547 0.1219,-0.45711 0.60949,-0.45711 0.4876,0 1.12756,0.48759 0.67044,0.45712 0.67044,0.91424 0,0.42664 -0.51806,1.88942 -0.51807,1.43231 -1.79801,4.75404 -1.24945,3.32173 -2.19417,6.0035 2.22465,-1.49326 3.44363,-1.49326 z m 14.10978,-17.09625 q 0.12189,-0.48759 0.24379,-0.67044 0.1219,-0.18285 0.51807,-0.18285 0.42664,0 1.00566,0.79234 0.60949,0.79234 0.60949,1.52373 0,0.39617 -1.34088,4.69309 -1.34088,4.29692 -2.07227,6.82631 -0.3657,1.27993 -1.03614,1.27993 -0.39617,0 -0.67044,-0.33522 -0.27427,-0.33522 -0.27427,-1.21898 0,-0.88377 0.70092,-3.19984 -1.27994,2.07228 -2.77319,3.41316 -1.49326,1.34088 -2.74272,1.34088 -1.21898,0 -2.31607,-1.15803 -1.09708,-1.15804 -1.09708,-2.37702 0,-2.89509 1.6761,-7.22248 1.70658,-4.35787 2.83414,-4.35787 0.54854,0 0.94471,0.51807 0.42665,0.48759 0.42665,1.12756 0,0.27427 -0.82282,1.98085 -0.82281,1.6761 -1.64563,3.9617 -0.82281,2.25512 -0.82281,3.96169 0,0.4876 0.30474,0.82282 0.30475,0.30474 0.7314,0.30474 1.15803,0 2.74271,-2.04179 1.61515,-2.0418 2.92556,-4.75404 1.31041,-2.71224 1.95038,-5.02831 z m 16.02966,4.20549 q 0,1.61516 -1.76752,2.65129 -1.73706,1.00567 -3.9617,1.00567 -2.19417,0 -3.99218,-0.4876 -0.42664,1.34089 -0.42664,2.4075 0,1.03613 0.63997,1.61515 0.67044,0.57902 2.16369,0.57902 1.52373,0 3.10841,-0.51807 1.61516,-0.54854 1.76753,-0.54854 0.79234,0 0.79234,0.60949 0,0.82281 -1.85895,1.798 -1.85895,0.94471 -3.62648,0.94471 -2.37702,0 -3.87027,-1.40183 -1.49326,-1.43231 -1.49326,-3.596 0,-2.1637 1.15804,-4.51024 1.15803,-2.37702 2.98651,-3.99218 1.82847,-1.61515 3.62647,-1.61515 1.79801,0 3.26079,1.70658 1.49325,1.70658 1.49325,3.3522 z m -4.60166,-2.65129 q -1.12756,0 -2.34655,1.18851 -1.21898,1.15804 -2.07227,2.89509 1.21898,0.27427 2.77319,0.27427 1.5542,0 2.71224,-0.48759 1.15803,-0.51807 1.15803,-1.34088 0,-0.82282 -0.76186,-1.67611 -0.73139,-0.85329 -1.46278,-0.85329 z m 30.53553,2.65129 q 0,1.61516 -1.76753,2.65129 -1.73705,1.00567 -3.96169,1.00567 -2.19418,0 -3.99218,-0.4876 -0.42664,1.34089 -0.42664,2.4075 0,1.03613 0.63997,1.61515 0.67044,0.57902 2.16369,0.57902 1.52373,0 3.10841,-0.51807 1.61515,-0.54854 1.76753,-0.54854 0.79234,0 0.79234,0.60949 0,0.82281 -1.85895,1.798 -1.85895,0.94471 -3.62648,0.94471 -2.37702,0 -3.87027,-1.40183 -1.49326,-1.43231 -1.49326,-3.596 0,-2.1637 1.15803,-4.51024 1.15804,-2.37702 2.98652,-3.99218 1.82847,-1.61515 3.62647,-1.61515 1.798,0 3.26078,1.70658 1.49326,1.70658 1.49326,3.3522 z m -4.60166,-2.65129 q -1.12756,0 -2.34655,1.18851 -1.21898,1.15804 -2.07227,2.89509 1.21898,0.27427 2.77319,0.27427 1.5542,0 2.71224,-0.48759 1.15803,-0.51807 1.15803,-1.34088 0,-0.82282 -0.76186,-1.67611 -0.73139,-0.85329 -1.46278,-0.85329 z m 9.1424,7.40533 q 2.92556,-4.96736 4.75404,-7.37485 1.85895,-2.43797 3.01698,-2.43797 1.18851,0 2.22465,1.24946 1.06661,1.24946 1.06661,2.65129 0,2.19417 -1.00566,5.36353 -1.82848,5.85112 -3.29126,5.85112 -0.67044,0 -0.67044,-0.91424 0,-0.63996 0.63996,-2.59034 0.67045,-1.98085 1.21899,-3.87027 0.57902,-1.9199 0.57902,-2.86461 0,-0.97519 -0.30475,-1.43231 -0.27427,-0.45712 -0.57902,-0.45712 -0.27427,0 -0.57901,0.18285 -0.30475,0.18285 -0.70092,0.60949 -0.3657,0.42665 -0.70092,0.85329 -0.33522,0.39617 -0.85328,1.15804 -0.4876,0.76186 -0.82282,1.3104 -0.33522,0.51807 -0.97519,1.52373 -0.63996,1.00566 -0.97518,1.52373 -0.33522,0.51807 -0.88377,1.40183 -0.54854,0.88377 -0.88376,1.37136 -0.30475,0.48759 -0.70092,1.06661 -0.76186,1.12756 -1.21898,1.12756 -0.42664,0 -1.00566,-0.67044 -0.57902,-0.70091 -0.57902,-1.21898 0,-0.15238 0.21332,-0.82282 0.57902,-1.76752 1.27994,-4.35786 0.70091,-2.62082 0.76186,-5.94255 0.0914,-2.22465 0.63997,-2.22465 0.67044,0 1.34088,0.70092 0.67044,0.70091 0.67044,1.5542 0,0.82282 -0.51807,3.23031 -0.48759,2.37702 -1.15803,4.44929 z m 18.16289,5.30258 q -1.76752,0 -3.32173,-1.37135 -1.5542,-1.40184 -1.5542,-3.29126 0,-1.9199 1.27993,-4.41882 1.27993,-2.49892 3.29126,-4.26644 2.0418,-1.76753 3.9617,-1.76753 1.24945,0 2.19417,1.12756 0.94471,1.12756 0.94471,1.98085 0,0.2438 -0.15237,0.42664 -0.15238,0.15238 -0.45712,0.15238 -0.27427,0 -1.00566,-0.54855 -0.73139,-0.54854 -1.31041,-0.54854 -1.64563,0 -3.8398,2.89509 -2.19417,2.89509 -2.19417,5.05878 0,0.94472 0.57902,1.49326 0.60949,0.54854 1.91989,0.54854 1.34089,0 2.43797,-0.30475 1.12756,-0.33522 1.73706,-0.63996 0.60949,-0.33522 0.94471,-0.33522 0.57902,0 0.57902,0.57901 0,0.88377 -2.13323,2.07228 -2.10274,1.15803 -3.90075,1.15803 z m 12.55553,-19.44279 q 0,-0.60949 0.48759,-1.15804 0.4876,-0.54854 0.97519,-0.54854 0.51807,0 1.21899,1.24946 0.70091,1.21898 0.70091,2.0418 0,0.30474 -0.27427,0.54854 -0.27427,0.2438 -0.57902,0.2438 -0.73139,0 -1.64563,-0.88377 -0.88376,-0.88376 -0.88376,-1.49325 z m -0.15237,4.32739 q 0.57901,0 1.09708,0.70092 0.51807,0.70091 0.51807,1.37135 0,0.67045 -0.88376,4.02265 -0.88377,3.32173 -2.22465,7.46628 -0.51807,1.52373 -1.31041,1.52373 -0.42664,0 -0.73139,-0.33522 -0.30474,-0.3657 -0.30474,-0.79234 0,-0.45712 0.21332,-1.40183 0.2438,-0.97519 0.67044,-2.55987 0.45712,-1.61515 0.70092,-2.62082 0.27427,-1.00566 0.54854,-2.25512 0.27427,-1.27993 0.42664,-2.04179 0.18285,-0.79234 0.39617,-1.58468 0.42665,-1.49326 0.88377,-1.49326 z m 15.66396,5.05878 q 0,1.61516 -1.76752,2.65129 -1.73706,1.00567 -3.9617,1.00567 -2.19417,0 -3.99218,-0.4876 -0.42664,1.34089 -0.42664,2.4075 0,1.03613 0.63997,1.61515 0.67044,0.57902 2.16369,0.57902 1.52373,0 3.10841,-0.51807 1.61516,-0.54854 1.76753,-0.54854 0.79234,0 0.79234,0.60949 0,0.82281 -1.85895,1.798 -1.85895,0.94471 -3.62648,0.94471 -2.37702,0 -3.87027,-1.40183 -1.49326,-1.43231 -1.49326,-3.596 0,-2.1637 1.15804,-4.51024 1.15803,-2.37702 2.98651,-3.99218 1.82847,-1.61515 3.62647,-1.61515 1.79801,0 3.26079,1.70658 1.49325,1.70658 1.49325,3.3522 z m -4.60166,-2.65129 q -1.12756,0 -2.34655,1.18851 -1.21898,1.15804 -2.07227,2.89509 1.21898,0.27427 2.77319,0.27427 1.5542,0 2.71224,-0.48759 1.15803,-0.51807 1.15803,-1.34088 0,-0.82282 -0.76186,-1.67611 -0.73139,-0.85329 -1.46278,-0.85329 z m 9.1424,7.40533 q 2.92556,-4.96736 4.75404,-7.37485 1.85895,-2.43797 3.01698,-2.43797 1.18851,0 2.22465,1.24946 1.06661,1.24946 1.06661,2.65129 0,2.19417 -1.00566,5.36353 -1.82848,5.85112 -3.29126,5.85112 -0.67044,0 -0.67044,-0.91424 0,-0.63996 0.63997,-2.59034 0.67044,-1.98085 1.21898,-3.87027 0.57902,-1.9199 0.57902,-2.86461 0,-0.97519 -0.30475,-1.43231 -0.27427,-0.45712 -0.57902,-0.45712 -0.27427,0 -0.57901,0.18285 -0.30475,0.18285 -0.70092,0.60949 -0.36569,0.42665 -0.70091,0.85329 -0.33522,0.39617 -0.85329,1.15804 -0.4876,0.76186 -0.82282,1.3104 -0.33522,0.51807 -0.97518,1.52373 -0.63997,1.00566 -0.97519,1.52373 -0.33522,0.51807 -0.88376,1.40183 -0.54855,0.88377 -0.88377,1.37136 -0.30474,0.48759 -0.70091,1.06661 -0.76187,1.12756 -1.21899,1.12756 -0.42664,0 -1.00566,-0.67044 -0.57902,-0.70091 -0.57902,-1.21898 0,-0.15238 0.21332,-0.82282 0.57902,-1.76752 1.27994,-4.35786 0.70091,-2.62082 0.76186,-5.94255 0.0914,-2.22465 0.63997,-2.22465 0.67044,0 1.34088,0.70092 0.67044,0.70091 0.67044,1.5542 0,0.82282 -0.51806,3.23031 -0.4876,2.37702 -1.15804,4.44929 z m 26.29961,-18.34571 q 0.4876,0 1.18851,0.91424 0.73139,0.88376 0.73139,1.6761 0,0.79234 -0.76186,4.51024 -0.76187,3.68743 -1.76753,7.64913 -2.19417,8.89858 -2.89508,8.89858 -0.42665,0 -0.94472,-0.51807 -0.48759,-0.54854 -0.48759,-0.94471 0,-0.39617 0.21332,-1.58468 -2.98651,3.04746 -5.21116,3.04746 -1.34088,0 -2.43796,-1.21898 -1.06661,-1.21899 -1.06661,-2.52939 0,-1.88943 1.00566,-4.47977 1.03613,-2.62081 2.95603,-4.75404 1.9199,-2.13322 4.0836,-2.13322 2.1637,0 3.01699,2.59034 1.5542,-6.46061 1.70657,-10.20899 0,-0.91424 0.67044,-0.91424 z m -3.3522,14.96303 q 0,-1.64563 -0.57902,-2.77319 -0.54854,-1.12756 -1.34088,-1.12756 -1.31041,0 -2.68177,1.61516 -1.37135,1.61515 -2.19417,3.7179 -0.79234,2.07227 -0.79234,3.596 0,0.54854 0.39617,0.88376 0.39617,0.33522 0.94472,0.33522 1.1885,0 3.19983,-1.70657 2.0418,-1.70658 2.95603,-4.02265 l 0.0914,-0.3657 z m 17.67529,-1.37136 q 0,1.61516 -1.76753,2.65129 -1.73705,1.00567 -3.9617,1.00567 -2.19417,0 -3.99217,-0.4876 -0.42664,1.34089 -0.42664,2.4075 0,1.03613 0.63996,1.61515 0.67045,0.57902 2.1637,0.57902 1.52373,0 3.10841,-0.51807 1.61515,-0.54854 1.76753,-0.54854 0.79234,0 0.79234,0.60949 0,0.82281 -1.85895,1.798 -1.85895,0.94471 -3.62648,0.94471 -2.37702,0 -3.87028,-1.40183 -1.49325,-1.43231 -1.49325,-3.596 0,-2.1637 1.15803,-4.51024 1.15804,-2.37702 2.98651,-3.99218 1.82848,-1.61515 3.62648,-1.61515 1.798,0 3.26078,1.70658 1.49326,1.70658 1.49326,3.3522 z m -4.60167,-2.65129 q -1.12756,0 -2.34654,1.18851 -1.21898,1.15804 -2.07227,2.89509 1.21898,0.27427 2.77319,0.27427 1.5542,0 2.71224,-0.48759 1.15803,-0.51807 1.15803,-1.34088 0,-0.82282 -0.76186,-1.67611 -0.73139,-0.85329 -1.46279,-0.85329 z m 21.78933,9.66045 q 0,0.57902 0.67044,0.57902 1.15803,0 2.80366,-0.63997 1.6761,-0.67044 1.85895,-0.67044 0.54855,0 0.54855,0.57902 0,0.88376 -1.82848,2.0418 -1.798,1.15803 -3.29126,1.15803 -1.46278,0 -2.43797,-0.79234 -0.97518,-0.82281 -0.97518,-1.6761 0,-0.85329 0.36569,-2.1637 0.3657,-1.34088 1.03614,-3.50458 0.70091,-2.19417 1.09708,-3.62647 -1.4323,0.33522 -1.9199,0.33522 -0.48759,0 -0.97518,-0.4876 -0.45712,-0.51806 -0.45712,-0.97518 0,-0.73139 3.9617,-1.40183 0.54854,-2.5294 0.54854,-4.47977 0,-0.91424 0.60949,-0.91424 0.51807,0 1.27993,0.67044 0.76187,0.63997 0.76187,1.46278 0,0.82282 -0.51807,2.89509 1.73705,-0.15237 2.77319,-0.15237 1.82848,0 1.82848,0.79234 0,0.45712 -1.00567,0.76186 -0.97518,0.30475 -4.14454,0.94471 -0.63997,2.4075 -1.61516,5.51591 -0.97518,3.07793 -0.97518,3.74837 z m 19.16849,-11.21465 q 0.1219,-0.48759 0.2438,-0.67044 0.1219,-0.18285 0.51807,-0.18285 0.42664,0 1.00566,0.79234 0.60949,0.79234 0.60949,1.52373 0,0.39617 -1.34088,4.69309 -1.34089,4.29692 -2.07228,6.82631 -0.36569,1.27993 -1.03613,1.27993 -0.39617,0 -0.67044,-0.33522 -0.27427,-0.33522 -0.27427,-1.21898 0,-0.88377 0.70091,-3.19984 -1.27993,2.07228 -2.77319,3.41316 -1.49325,1.34088 -2.74271,1.34088 -1.21899,0 -2.31607,-1.15803 -1.09709,-1.15804 -1.09709,-2.37702 0,-2.89509 1.67611,-7.22248 1.70657,-4.35787 2.83413,-4.35787 0.54855,0 0.94472,0.51807 0.42664,0.48759 0.42664,1.12756 0,0.27427 -0.82281,1.98085 -0.82282,1.6761 -1.64563,3.9617 -0.82282,2.25512 -0.82282,3.96169 0,0.4876 0.30475,0.82282 0.30475,0.30474 0.73139,0.30474 1.15804,0 2.74271,-2.04179 1.61516,-2.0418 2.92557,-4.75404 1.3104,-2.71224 1.95037,-5.02831 z m 12.58605,-0.85329 q 1.03614,0 1.95038,1.15804 0.91424,1.12756 0.91424,1.98084 0,0.51807 -0.4876,0.51807 -0.33522,0 -1.03613,-0.51807 -0.70092,-0.54854 -1.43231,-0.54854 -0.73139,0 -2.31607,0.85329 -1.5542,0.85329 -1.5542,1.798 0,0.70092 2.80366,2.4075 1.06661,0.67044 1.9199,1.73705 0.88376,1.03613 0.88376,2.25512 0,1.18851 -1.6761,2.34654 -1.64563,1.12756 -3.87028,1.12756 -2.19417,0 -3.90074,-1.06661 -1.67611,-1.06661 -1.67611,-2.01132 0,-0.39617 0.18285,-0.60949 0.21332,-0.2438 0.51807,-0.2438 0.30474,0 0.85329,0.39617 1.64563,1.18851 3.41315,1.18851 1.798,0 2.59034,-0.39617 0.79234,-0.42665 0.79234,-1.09709 0,-0.70091 -0.88376,-1.46278 -0.88376,-0.79234 -1.95037,-1.40183 -1.03614,-0.60949 -1.9199,-1.49325 -0.88377,-0.88377 -0.88377,-1.79801 0,-1.61515 2.52939,-3.3522 2.55987,-1.76753 4.23597,-1.76753 z m 25.20249,0 q 1.03613,0 1.95037,1.15804 0.91424,1.12756 0.91424,1.98084 0,0.51807 -0.48759,0.51807 -0.33522,0 -1.03614,-0.51807 -0.70092,-0.54854 -1.43231,-0.54854 -0.73139,0 -2.31607,0.85329 -1.5542,0.85329 -1.5542,1.798 0,0.70092 2.80366,2.4075 1.06661,0.67044 1.9199,1.73705 0.88377,1.03613 0.88377,2.25512 0,1.18851 -1.67611,2.34654 -1.64563,1.12756 -3.87027,1.12756 -2.19417,0 -3.90075,-1.06661 -1.6761,-1.06661 -1.6761,-2.01132 0,-0.39617 0.18284,-0.60949 0.21333,-0.2438 0.51807,-0.2438 0.30475,0 0.85329,0.39617 1.64563,1.18851 3.41316,1.18851 1.798,0 2.59034,-0.39617 0.79234,-0.42665 0.79234,-1.09709 0,-0.70091 -0.88377,-1.46278 -0.88376,-0.79234 -1.95037,-1.40183 -1.03614,-0.60949 -1.9199,-1.49325 -0.88376,-0.88377 -0.88376,-1.79801 0,-1.61515 2.52939,-3.3522 2.55986,-1.76753 4.23597,-1.76753 z m 16.4258,5.05878 q 0,1.61516 -1.76752,2.65129 -1.73705,1.00567 -3.9617,1.00567 -2.19417,0 -3.99217,-0.4876 -0.42665,1.34089 -0.42665,2.4075 0,1.03613 0.63997,1.61515 0.67044,0.57902 2.1637,0.57902 1.52373,0 3.10841,-0.51807 1.61515,-0.54854 1.76752,-0.54854 0.79234,0 0.79234,0.60949 0,0.82281 -1.85895,1.798 -1.85895,0.94471 -3.62648,0.94471 -2.37701,0 -3.87027,-1.40183 -1.49326,-1.43231 -1.49326,-3.596 0,-2.1637 1.15804,-4.51024 1.15803,-2.37702 2.98651,-3.99218 1.82848,-1.61515 3.62648,-1.61515 1.798,0 3.26078,1.70658 1.49325,1.70658 1.49325,3.3522 z m -4.60166,-2.65129 q -1.12756,0 -2.34654,1.18851 -1.21899,1.15804 -2.07228,2.89509 1.21899,0.27427 2.77319,0.27427 1.55421,0 2.71224,-0.48759 1.15804,-0.51807 1.15804,-1.34088 0,-0.82282 -0.76187,-1.67611 -0.73139,-0.85329 -1.46278,-0.85329 z m 9.14243,7.40533 q 2.92556,-4.96736 4.75404,-7.37485 1.85895,-2.43797 3.01699,-2.43797 1.18851,0 2.22464,1.24946 1.06661,1.24946 1.06661,2.65129 0,2.19417 -1.00566,5.36353 -1.82847,5.85112 -3.29126,5.85112 -0.67044,0 -0.67044,-0.91424 0,-0.63996 0.63997,-2.59034 0.67044,-1.98085 1.21898,-3.87027 0.57902,-1.9199 0.57902,-2.86461 0,-0.97519 -0.30474,-1.43231 -0.27428,-0.45712 -0.57902,-0.45712 -0.27427,0 -0.57902,0.18285 -0.30475,0.18285 -0.70092,0.60949 -0.36569,0.42665 -0.70091,0.85329 -0.33522,0.39617 -0.85329,1.15804 -0.48759,0.76186 -0.82281,1.3104 -0.33522,0.51807 -0.97519,1.52373 -0.63997,1.00566 -0.97519,1.52373 -0.33522,0.51807 -0.88376,1.40183 -0.54854,0.88377 -0.88377,1.37136 -0.30474,0.48759 -0.70091,1.06661 -0.76187,1.12756 -1.21899,1.12756 -0.42664,0 -1.00566,-0.67044 -0.57901,-0.70091 -0.57901,-1.21898 0,-0.15238 0.21332,-0.82282 0.57902,-1.76752 1.27993,-4.35786 0.70092,-2.62082 0.76187,-5.94255 0.0914,-2.22465 0.63996,-2.22465 0.67044,0 1.34089,0.70092 0.67044,0.70091 0.67044,1.5542 0,0.82282 -0.51807,3.23031 -0.4876,2.37702 -1.15804,4.44929 z m 16.66963,2.25512 q 0,0.57902 0.67044,0.57902 1.15803,0 2.80366,-0.63997 1.67611,-0.67044 1.85895,-0.67044 0.54855,0 0.54855,0.57902 0,0.88376 -1.82848,2.0418 -1.798,1.15803 -3.29126,1.15803 -1.46278,0 -2.43796,-0.79234 -0.97519,-0.82281 -0.97519,-1.6761 0,-0.85329 0.36569,-2.1637 0.3657,-1.34088 1.03614,-3.50458 0.70092,-2.19417 1.09709,-3.62647 -1.43231,0.33522 -1.9199,0.33522 -0.4876,0 -0.97519,-0.4876 -0.45712,-0.51806 -0.45712,-0.97518 0,-0.73139 3.9617,-1.40183 0.54854,-2.5294 0.54854,-4.47977 0,-0.91424 0.60949,-0.91424 0.51807,0 1.27994,0.67044 0.76186,0.63997 0.76186,1.46278 0,0.82282 -0.51807,2.89509 1.73705,-0.15237 2.77319,-0.15237 1.82848,0 1.82848,0.79234 0,0.45712 -1.00566,0.76186 -0.97519,0.30475 -4.14455,0.94471 -0.63997,2.4075 -1.61515,5.51591 -0.97519,3.07793 -0.97519,3.74837 z m 12.28123,-16.39533 q 0,-0.60949 0.4876,-1.15804 0.48759,-0.54854 0.97518,-0.54854 0.51807,0 1.21899,1.24946 0.70091,1.21898 0.70091,2.0418 0,0.30474 -0.27427,0.54854 -0.27427,0.2438 -0.57902,0.2438 -0.73139,0 -1.64562,-0.88377 -0.88377,-0.88376 -0.88377,-1.49325 z m -0.15237,4.32739 q 0.57902,0 1.09709,0.70092 0.51806,0.70091 0.51806,1.37135 0,0.67045 -0.88376,4.02265 -0.88376,3.32173 -2.22465,7.46628 -0.51806,1.52373 -1.3104,1.52373 -0.42665,0 -0.73139,-0.33522 -0.30475,-0.3657 -0.30475,-0.79234 0,-0.45712 0.21332,-1.40183 0.2438,-0.97519 0.67044,-2.55987 0.45712,-1.61515 0.70092,-2.62082 0.27427,-1.00566 0.54854,-2.25512 0.27427,-1.27993 0.42665,-2.04179 0.18284,-0.79234 0.39617,-1.58468 0.42664,-1.49326 0.88376,-1.49326 z m 16.54774,-8.53289 q 0.4876,0 1.18851,0.91424 0.73139,0.88376 0.73139,1.6761 0,0.79234 -0.76186,4.51024 -0.76187,3.68743 -1.76753,7.64913 -2.19417,8.89858 -2.89509,8.89858 -0.42664,0 -0.94471,-0.51807 -0.48759,-0.54854 -0.48759,-0.94471 0,-0.39617 0.21332,-1.58468 -2.98651,3.04746 -5.21116,3.04746 -1.34088,0 -2.43796,-1.21898 -1.06662,-1.21899 -1.06662,-2.52939 0,-1.88943 1.00567,-4.47977 1.03613,-2.62081 2.95603,-4.75404 1.9199,-2.13322 4.0836,-2.13322 2.1637,0 3.01698,2.59034 1.55421,-6.46061 1.70658,-10.20899 0,-0.91424 0.67044,-0.91424 z m -3.3522,14.96303 q 0,-1.64563 -0.57902,-2.77319 -0.54854,-1.12756 -1.34088,-1.12756 -1.31041,0 -2.68177,1.61516 -1.37135,1.61515 -2.19417,3.7179 -0.79234,2.07227 -0.79234,3.596 0,0.54854 0.39617,0.88376 0.39617,0.33522 0.94471,0.33522 1.18851,0 3.19984,-1.70657 2.0418,-1.70658 2.95603,-4.02265 l 0.0914,-0.3657 z m 14.71922,-1.24946 q 0,-1.03613 -0.33522,-1.95037 -0.33522,-0.94471 -0.97519,-1.37136 -2.10274,0.57902 -3.62647,3.26078 -1.49326,2.65129 -1.49326,4.99784 0,2.34654 1.15804,2.92556 2.19417,-0.42664 3.7179,-2.98651 1.5542,-2.59034 1.5542,-4.87594 z m -8.01482,0.27427 q 1.06661,-2.37701 2.77319,-3.90074 1.73705,-1.55421 3.53505,-1.55421 1.82848,0 3.04746,1.55421 1.21899,1.52373 1.21899,3.74837 0,2.19417 -1.06661,4.51024 -1.06661,2.2856 -2.95604,3.80933 -1.85895,1.49325 -3.9617,1.49325 -1.5542,0 -2.59034,-1.4323 -1.03614,-1.43231 -1.03614,-3.62648 0,-2.22465 1.03614,-4.60167 z m 21.33222,-5.45495 q 1.03614,0 1.95037,1.15804 0.91424,1.12756 0.91424,1.98084 0,0.51807 -0.48759,0.51807 -0.33522,0 -1.03614,-0.51807 -0.70091,-0.54854 -1.4323,-0.54854 -0.73139,0 -2.31607,0.85329 -1.55421,0.85329 -1.55421,1.798 0,0.70092 2.80367,2.4075 1.06661,0.67044 1.9199,1.73705 0.88376,1.03613 0.88376,2.25512 0,1.18851 -1.6761,2.34654 -1.64563,1.12756 -3.87028,1.12756 -2.19417,0 -3.90075,-1.06661 -1.6761,-1.06661 -1.6761,-2.01132 0,-0.39617 0.18285,-0.60949 0.21332,-0.2438 0.51807,-0.2438 0.30474,0 0.85328,0.39617 1.64563,1.18851 3.41316,1.18851 1.798,0 2.59034,-0.39617 0.79234,-0.42665 0.79234,-1.09709 0,-0.70091 -0.88376,-1.46278 -0.88377,-0.79234 -1.95038,-1.40183 -1.03613,-0.60949 -1.9199,-1.49325 -0.88376,-0.88377 -0.88376,-1.79801 0,-1.61515 2.52939,-3.3522 2.55987,-1.76753 4.23597,-1.76753 z m 7.74054,15.75537 q -0.7619,0 -1.737,-0.97519 -0.97523,-1.00566 -0.97523,-1.64563 0,-0.67044 0.51807,-1.3104 0.54856,-0.67045 1.09706,-0.67045 0.579,0 1.3104,1.49326 0.7619,1.49326 0.7619,2.25512 0,0.2438 -0.3352,0.54854 -0.3352,0.30475 -0.64,0.30475 z"
         id="text1-2"
         style="font-size:30.4746px;font-family:Kalam;-inkscape-font-specification:'Kalam, Normal';fill:url(#linearGradient6);fill-opacity:1;stroke-width:2.90495"
         aria-label="El sabor que enciende tus sentidos."
         transform="scale(0.79085449,1.2644551)" /></g></g></svg>
